{
    "asset": {
        "version": "2.0",
        "generator": "Open Asset Import Library (assimp v5.0.5eb040c7)"
    },
    "accessors": [
        {
            "bufferView": 0,
            "byteOffset": 0,
            "componentType": 5126,
            "count": 586,
            "type": "VEC3",
            "max": [
                14.067839622497559,
                36.37753677368164,
                14.485722541809082
            ],
            "min": [
                -16.275123596191408,
                8.753528594970704,
                -14.799396514892579
            ]
        },
        {
            "bufferView": 1,
            "byteOffset": 0,
            "componentType": 5126,
            "count": 586,
            "type": "VEC3",
            "max": [
                0.9837483763694763,
                0.9355114102363586,
                0.990405261516571
            ],
            "min": [
                -0.9863216280937195,
                -0.8157302737236023,
                -0.9242660999298096
            ]
        },
        {
            "bufferView": 2,
            "byteOffset": 0,
            "componentType": 5126,
            "count": 586,
            "type": "VEC2",
            "max": [
                1.0,
                0.9974539875984192
            ],
            "min": [
                -0.0,
                -0.0006979703903198242
            ]
        },
        {
            "bufferView": 3,
            "byteOffset": 0,
            "componentType": 5125,
            "count": 2010,
            "type": "SCALAR",
            "max": [
                585
            ],
            "min": [
                0
            ]
        },
        {
            "bufferView": 4,
            "byteOffset": 0,
            "componentType": 5126,
            "count": 464,
            "type": "VEC3",
            "max": [
                6.686561107635498,
                11.604156494140625,
                6.672982215881348
            ],
            "min": [
                -6.698282241821289,
                -0.03086799941956997,
                -6.711860179901123
            ]
        },
        {
            "bufferView": 5,
            "byteOffset": 0,
            "componentType": 5126,
            "count": 464,
            "type": "VEC3",
            "max": [
                1.0,
                0.9999970197677612,
                1.0
            ],
            "min": [
                -1.0,
                -0.9999834895133972,
                -1.0
            ]
        },
        {
            "bufferView": 6,
            "byteOffset": 0,
            "componentType": 5126,
            "count": 464,
            "type": "VEC2",
            "max": [
                0.65625,
                1.0
            ],
            "min": [
                0.34375,
                0.0
            ]
        },
        {
            "bufferView": 7,
            "byteOffset": 0,
            "componentType": 5125,
            "count": 2508,
            "type": "SCALAR",
            "max": [
                463
            ],
            "min": [
                0
            ]
        }
    ],
    "buffers": [
        {
            "byteLength": 51672,
            "uri": "result.bin"
        }
    ],
    "bufferViews": [
        {
            "buffer": 0,
            "byteOffset": 0,
            "byteLength": 7032,
            "target": 34962
        },
        {
            "buffer": 0,
            "byteOffset": 7032,
            "byteLength": 7032,
            "target": 34962
        },
        {
            "buffer": 0,
            "byteOffset": 14064,
            "byteLength": 4688,
            "target": 34962
        },
        {
            "buffer": 0,
            "byteOffset": 18752,
            "byteLength": 8040,
            "target": 34963
        },
        {
            "buffer": 0,
            "byteOffset": 26792,
            "byteLength": 5568,
            "target": 34962
        },
        {
            "buffer": 0,
            "byteOffset": 32360,
            "byteLength": 5568,
            "target": 34962
        },
        {
            "buffer": 0,
            "byteOffset": 37928,
            "byteLength": 3712,
            "target": 34962
        },
        {
            "buffer": 0,
            "byteOffset": 41640,
            "byteLength": 10032,
            "target": 34963
        }
    ],
    "materials": [
        {
            "name": "DefaultMaterial",
            "pbrMetallicRoughness": {
                "baseColorFactor": [
                    0.6000000238418579,
                    0.6000000238418579,
                    0.6000000238418579,
                    1.0
                ],
                "metallicFactor": 0.0
            }
        },
        {
            "name": "phong1SG",
            "pbrMetallicRoughness": {
                "baseColorFactor": [
                    0.6000000238418579,
                    0.6000000238418579,
                    0.6000000238418579,
                    1.0
                ],
                "metallicFactor": 0.0
            }
        },
        {
            "name": "phong2SG",
            "pbrMetallicRoughness": {
                "baseColorFactor": [
                    0.6000000238418579,
                    0.6000000238418579,
                    0.6000000238418579,
                    1.0
                ],
                "metallicFactor": 0.0
            }
        }
    ],
    "meshes": [
        {
            "name": "leaf2 blueberry_pot_2",
            "primitives": [
                {
                    "mode": 4,
                    "material": 1,
                    "indices": 3,
                    "attributes": {
                        "POSITION": 0,
                        "NORMAL": 1,
                        "TEXCOORD_0": 2
                    }
                }
            ]
        },
        {
            "name": "blueberry_pot_2 pot1",
            "primitives": [
                {
                    "mode": 4,
                    "material": 2,
                    "indices": 7,
                    "attributes": {
                        "POSITION": 4,
                        "NORMAL": 5,
                        "TEXCOORD_0": 6
                    }
                }
            ]
        }
    ],
    "nodes": [
        {
            "name": "input.obj",
            "children": [
                1,
                2,
                3,
                4
            ]
        },
        {
            "name": "default"
        },
        {
            "name": "leaf2 blueberry_pot_2",
            "mesh": 0
        },
        {
            "name": "default_node"
        },
        {
            "name": "blueberry_pot_2 pot1",
            "mesh": 1
        }
    ],
    "scenes": [
        {
            "nodes": [
                0
            ]
        }
    ],
    "scene": 0
}