{
    "asset": {
        "version": "2.0",
        "generator": "Open Asset Import Library (assimp v5.0.5eb040c7)"
    },
    "accessors": [
        {
            "bufferView": 0,
            "byteOffset": 0,
            "componentType": 5126,
            "count": 1969,
            "type": "VEC3",
            "max": [
                1.7178210020065308,
                2.6924891471862795,
                1.7178210020065308
            ],
            "min": [
                -1.7178210020065308,
                -0.004579999949783087,
                -1.7178210020065308
            ]
        },
        {
            "bufferView": 1,
            "byteOffset": 0,
            "componentType": 5126,
            "count": 1969,
            "type": "VEC2",
            "max": [
                0.8422009944915772,
                0.5427869558334351
            ],
            "min": [
                0.04061000049114227,
                0.01624298095703125
            ]
        },
        {
            "bufferView": 2,
            "byteOffset": 0,
            "componentType": 5125,
            "count": 11520,
            "type": "SCALAR",
            "max": [
                1968
            ],
            "min": [
                0
            ]
        },
        {
            "bufferView": 3,
            "byteOffset": 0,
            "componentType": 5126,
            "count": 1995,
            "type": "VEC3",
            "max": [
                1.4432859420776368,
                3.929419994354248,
                1.3267790079116822
            ],
            "min": [
                -0.9305070042610169,
                2.2202889919281008,
                -0.9380890130996704
            ]
        },
        {
            "bufferView": 4,
            "byteOffset": 0,
            "componentType": 5126,
            "count": 1995,
            "type": "VEC2",
            "max": [
                0.9848960041999817,
                0.9952099919319153
            ],
            "min": [
                0.002595999976620078,
                0.36436599493026736
            ]
        },
        {
            "bufferView": 5,
            "byteOffset": 0,
            "componentType": 5125,
            "count": 10368,
            "type": "SCALAR",
            "max": [
                1994
            ],
            "min": [
                0
            ]
        }
    ],
    "buffers": [
        {
            "byteLength": 166832,
            "uri": "result.bin"
        }
    ],
    "bufferViews": [
        {
            "buffer": 0,
            "byteOffset": 0,
            "byteLength": 23628,
            "target": 34962
        },
        {
            "buffer": 0,
            "byteOffset": 23628,
            "byteLength": 15752,
            "target": 34962
        },
        {
            "buffer": 0,
            "byteOffset": 39380,
            "byteLength": 46080,
            "target": 34963
        },
        {
            "buffer": 0,
            "byteOffset": 85460,
            "byteLength": 23940,
            "target": 34962
        },
        {
            "buffer": 0,
            "byteOffset": 109400,
            "byteLength": 15960,
            "target": 34962
        },
        {
            "buffer": 0,
            "byteOffset": 125360,
            "byteLength": 41472,
            "target": 34963
        }
    ],
    "materials": [
        {
            "name": "DefaultMaterial",
            "pbrMetallicRoughness": {
                "baseColorFactor": [
                    0.6000000238418579,
                    0.6000000238418579,
                    0.6000000238418579,
                    1.0
                ],
                "metallicFactor": 0.0
            }
        },
        {
            "name": "Material",
            "pbrMetallicRoughness": {
                "baseColorFactor": [
                    0.6000000238418579,
                    0.6000000238418579,
                    0.6000000238418579,
                    1.0
                ],
                "metallicFactor": 0.0
            }
        },
        {
            "name": "Material.001",
            "pbrMetallicRoughness": {
                "baseColorFactor": [
                    0.6000000238418579,
                    0.6000000238418579,
                    0.6000000238418579,
                    1.0
                ],
                "metallicFactor": 0.0
            }
        }
    ],
    "meshes": [
        {
            "name": "Cube",
            "primitives": [
                {
                    "mode": 4,
                    "material": 1,
                    "indices": 2,
                    "attributes": {
                        "POSITION": 0,
                        "TEXCOORD_0": 1
                    }
                }
            ]
        },
        {
            "name": "Cylinder",
            "primitives": [
                {
                    "mode": 4,
                    "material": 2,
                    "indices": 5,
                    "attributes": {
                        "POSITION": 3,
                        "TEXCOORD_0": 4
                    }
                }
            ]
        }
    ],
    "nodes": [
        {
            "name": "input.obj",
            "children": [
                1,
                2
            ]
        },
        {
            "name": "Cube",
            "mesh": 0
        },
        {
            "name": "Cylinder",
            "mesh": 1
        }
    ],
    "scenes": [
        {
            "nodes": [
                0
            ]
        }
    ],
    "scene": 0
}